<svg width="37" height="37" viewBox="0 0 37 37" fill="none" xmlns="http://www.w3.org/2000/svg">
<path d="M13.9376 24.8417L8.66027 19.5644C8.37591 19.28 7.99023 19.1203 7.58808 19.1203C7.18593 19.1203 6.80025 19.28 6.51589 19.5644C6.23153 19.8488 6.07178 20.2344 6.07178 20.6366C6.07178 20.8357 6.111 21.0329 6.1872 21.2169C6.2634 21.4008 6.37509 21.568 6.51589 21.7088L12.873 28.0659C13.4661 28.659 14.4242 28.659 15.0174 28.0659L31.1078 11.9755C31.3921 11.6911 31.5519 11.3054 31.5519 10.9033C31.5519 10.5011 31.3921 10.1154 31.1078 9.83108C30.8234 9.54672 30.4377 9.38696 30.0356 9.38696C29.6334 9.38696 29.2478 9.54672 28.9634 9.83108L13.9376 24.8417Z" fill="#683F19"/>
</svg>
